<svg width="226" height="216" viewBox="0 0 226 216" fill="none" xmlns="http://www.w3.org/2000/svg">
<path fill-rule="evenodd" clip-rule="evenodd" d="M120.41 198.078C103.57 195.815 83.2302 197.781 74.9696 202.471C66.7159 207.16 73.6731 212.797 90.5133 215.06C107.353 217.324 127.693 215.358 135.954 210.669C144.208 205.979 137.251 200.343 120.41 198.078Z" fill="#f0f8ff"/>
<path fill-rule="evenodd" clip-rule="evenodd" d="M74.9695 205.36C83.2231 200.67 103.57 198.704 120.41 200.967C130.768 202.36 137.378 205.029 139.015 207.969C141.26 203.99 134.105 199.92 120.41 198.078C103.57 195.815 83.2231 197.781 74.9695 202.471C71.7885 204.275 70.8746 206.22 71.9019 208.059C72.4191 207.145 73.4251 206.236 74.9695 205.36Z" fill="#E2E2E2"/>
<path fill-rule="evenodd" clip-rule="evenodd" d="M213.17 36.8263L206.298 72.2361H213.234L225.922 36.8263H213.17ZM203.96 84.2755H208.919L210.945 78.6099H205.058L203.96 84.2755ZM13.3822 83.5673H0.629883L13.3185 118.977H20.255L13.3822 83.5673ZM15.6033 125.351L17.633 131.016H22.5923L21.492 125.351H15.6033ZM169.953 4.57764e-05L53.7647 17.705L171.37 7.08201L169.953 4.57764e-05ZM7.00606 34.7017L4.1722 38.9509L16.2161 75.7771L7.00606 34.7017ZM202.543 23.3705L194.041 123.226L206.794 25.4951L202.543 23.3705ZM188.274 134.557L140.439 135.2L140.885 149.43L99.0858 157.928L109.713 163.593L101.92 174.925L129.55 184.839L105.937 215.993C105.164 216 104.399 216 103.634 215.986L121.757 186.256L94.1266 177.757L99.7943 166.426L78.5404 155.803L120.34 143.764L107.148 135.647L30.1657 136.682L12.6738 28.3279L196.875 10.623L188.274 134.557Z" fill="#bdc5cc"/>
<path d="M73.551 64V49.4545H82.6703V51.3437H75.7456V55.7756H82.1945V57.6577H75.7456V62.1108H82.7556V64H73.551Z" fill="white" fill-opacity="0.5"/>
<path d="M88.6018 64V49.4545H93.7865C94.9134 49.4545 95.8485 49.6487 96.5919 50.0369C97.34 50.4252 97.8987 50.9626 98.268 51.6491C98.6373 52.331 98.822 53.1193 98.822 54.0142C98.822 54.9044 98.635 55.688 98.2609 56.3651C97.8916 57.0374 97.3329 57.5606 96.5848 57.9347C95.8414 58.3087 94.9063 58.4957 93.7794 58.4957H89.8518V56.6065H93.5805C94.2907 56.6065 94.8684 56.5047 95.3135 56.3011C95.7633 56.0975 96.0923 55.8016 96.3007 55.4133C96.509 55.0251 96.6132 54.5587 96.6132 54.0142C96.6132 53.465 96.5066 52.9891 96.2936 52.5866C96.0852 52.1842 95.7562 51.8764 95.3064 51.6633C94.8613 51.4455 94.2765 51.3366 93.5521 51.3366H90.7964V64H88.6018ZM95.7822 57.4375L99.376 64H96.876L93.3532 57.4375H95.7822Z" fill="white" fill-opacity="0.5"/>
<path d="M104.492 64V49.4545H109.677C110.804 49.4545 111.739 49.6487 112.482 50.0369C113.231 50.4252 113.789 50.9626 114.159 51.6491C114.528 52.331 114.713 53.1193 114.713 54.0142C114.713 54.9044 114.526 55.688 114.152 56.3651C113.782 57.0374 113.223 57.5606 112.475 57.9347C111.732 58.3087 110.797 58.4957 109.67 58.4957H105.742V56.6065H109.471C110.181 56.6065 110.759 56.5047 111.204 56.3011C111.654 56.0975 111.983 55.8016 112.191 55.4133C112.4 55.0251 112.504 54.5587 112.504 54.0142C112.504 53.465 112.397 52.9891 112.184 52.5866C111.976 52.1842 111.647 51.8764 111.197 51.6633C110.752 51.4455 110.167 51.3366 109.443 51.3366H106.687V64H104.492ZM111.673 57.4375L115.267 64H112.767L109.244 57.4375H111.673Z" fill="white" fill-opacity="0.5"/>
<path d="M133.018 56.7273C133.018 58.2803 132.734 59.6155 132.166 60.7329C131.598 61.8456 130.819 62.7026 129.829 63.304C128.844 63.9006 127.724 64.1989 126.47 64.1989C125.21 64.1989 124.086 63.9006 123.096 63.304C122.111 62.7026 121.335 61.8433 120.767 60.7258C120.198 59.6084 119.914 58.2756 119.914 56.7273C119.914 55.1742 120.198 53.8414 120.767 52.7287C121.335 51.6113 122.111 50.7543 123.096 50.1577C124.086 49.5563 125.21 49.2557 126.47 49.2557C127.724 49.2557 128.844 49.5563 129.829 50.1577C130.819 50.7543 131.598 51.6113 132.166 52.7287C132.734 53.8414 133.018 55.1742 133.018 56.7273ZM130.845 56.7273C130.845 55.5436 130.653 54.5469 130.269 53.7372C129.891 52.9228 129.37 52.3073 128.707 51.8906C128.049 51.4692 127.303 51.2585 126.47 51.2585C125.632 51.2585 124.884 51.4692 124.225 51.8906C123.567 52.3073 123.046 52.9228 122.663 53.7372C122.284 54.5469 122.095 55.5436 122.095 56.7273C122.095 57.911 122.284 58.91 122.663 59.7244C123.046 60.5341 123.567 61.1496 124.225 61.571C124.884 61.9877 125.632 62.196 126.47 62.196C127.303 62.196 128.049 61.9877 128.707 61.571C129.37 61.1496 129.891 60.5341 130.269 59.7244C130.653 58.91 130.845 57.911 130.845 56.7273Z" fill="white" fill-opacity="0.5"/>
<path d="M138.754 64V49.4545H143.939C145.066 49.4545 146.001 49.6487 146.744 50.0369C147.492 50.4252 148.051 50.9626 148.42 51.6491C148.79 52.331 148.974 53.1193 148.974 54.0142C148.974 54.9044 148.787 55.688 148.413 56.3651C148.044 57.0374 147.485 57.5606 146.737 57.9347C145.994 58.3087 145.059 58.4957 143.932 58.4957H140.004V56.6065H143.733C144.443 56.6065 145.021 56.5047 145.466 56.3011C145.916 56.0975 146.245 55.8016 146.453 55.4133C146.661 55.0251 146.766 54.5587 146.766 54.0142C146.766 53.465 146.659 52.9891 146.446 52.5866C146.238 52.1842 145.909 51.8764 145.459 51.6633C145.014 51.4455 144.429 51.3366 143.704 51.3366H140.949V64H138.754ZM145.935 57.4375L149.528 64H147.028L143.506 57.4375H145.935Z" fill="white" fill-opacity="0.5"/>
<path d="M71.0791 102.602V98.4119L83.4229 78.9091H86.9172V84.875H84.7865L76.4768 98.0426V98.2699H93.7069V102.602H71.0791ZM84.9569 108V101.324L85.0138 99.4489V78.9091H89.9854V108H84.9569Z" fill="white"/>
<path d="M108.998 108.554C106.659 108.554 104.652 107.962 102.975 106.778C101.309 105.585 100.026 103.866 99.126 101.622C98.2358 99.3684 97.7907 96.6553 97.7907 93.4829C97.8002 90.3106 98.25 87.6117 99.1402 85.3864C100.04 83.1515 101.323 81.447 102.99 80.2727C104.666 79.0985 106.669 78.5114 108.998 78.5114C111.328 78.5114 113.331 79.0985 115.007 80.2727C116.683 81.447 117.966 83.1515 118.856 85.3864C119.756 87.6212 120.206 90.3201 120.206 93.4829C120.206 96.6648 119.756 99.3826 118.856 101.636C117.966 103.881 116.683 105.595 115.007 106.778C113.34 107.962 111.337 108.554 108.998 108.554ZM108.998 104.108C110.816 104.108 112.251 103.213 113.302 101.423C114.363 99.624 114.893 96.9773 114.893 93.4829C114.893 91.1723 114.652 89.2311 114.169 87.6591C113.686 86.0871 113.004 84.9034 112.123 84.1079C111.242 83.303 110.201 82.9006 108.998 82.9006C107.189 82.9006 105.759 83.8002 104.708 85.5994C103.657 87.3892 103.127 90.017 103.117 93.4829C103.108 95.803 103.34 97.7538 103.813 99.3352C104.296 100.917 104.978 102.11 105.859 102.915C106.74 103.71 107.786 104.108 108.998 104.108Z" fill="white"/>
<path d="M124.399 102.602V98.4119L136.743 78.9091H140.237V84.875H138.107L129.797 98.0426V98.2699H147.027V102.602H124.399ZM138.277 108V101.324L138.334 99.4489V78.9091H143.306V108H138.277Z" fill="white"/>
</svg>
